<?xml version="1.0" encoding="UTF-8" standalone="no"?>
<!DOCTYPE svg PUBLIC "-//W3C//DTD SVG 1.1//EN" "http://www.w3.org/Graphics/SVG/1.1/DTD/svg11.dtd">
<!-- Created with Vectornator (http://vectornator.io/) -->
<svg height="100%" stroke-miterlimit="10" style="fill-rule:nonzero;clip-rule:evenodd;stroke-linecap:round;stroke-linejoin:round;" version="1.1" viewBox="0 0 1024 1024" width="100%" xml:space="preserve" xmlns="http://www.w3.org/2000/svg" xmlns:vectornator="http://vectornator.io" xmlns:xlink="http://www.w3.org/1999/xlink">
<defs>
<filter color-interpolation-filters="sRGB" filterUnits="userSpaceOnUse" height="448.266" id="Filter" width="575.612" x="225.098" y="300.28">
<feDropShadow dx="-3.67321e-05" dy="10" flood-color="#000000" flood-opacity="0.333" in="SourceGraphic" result="Shadow" stdDeviation="5"/>
</filter>
<filter color-interpolation-filters="sRGB" filterUnits="userSpaceOnUse" height="372.384" id="Filter_2" width="671.479" x="41.3516" y="213.218">
<feDropShadow dx="-3.67321e-05" dy="10" flood-color="#000000" flood-opacity="0.333" in="SourceGraphic" result="Shadow" stdDeviation="5"/>
</filter>
<filter color-interpolation-filters="sRGB" filterUnits="userSpaceOnUse" height="379.321" id="Filter_3" width="405.633" x="398.443" y="35.5939">
<feDropShadow dx="-3.67321e-05" dy="10" flood-color="#000000" flood-opacity="0.333" in="SourceGraphic" result="Shadow" stdDeviation="5"/>
</filter>
<filter color-interpolation-filters="sRGB" filterUnits="userSpaceOnUse" height="112.187" id="Filter_4" width="448.299" x="354.067" y="423.312">
<feDropShadow dx="-3.67321e-05" dy="10" flood-color="#000000" flood-opacity="0.333" in="SourceGraphic" result="Shadow" stdDeviation="5"/>
</filter>
<filter color-interpolation-filters="sRGB" filterUnits="userSpaceOnUse" height="233.436" id="Filter_5" width="206.389" x="87.1225" y="774.857">
<feDropShadow dx="-3.67321e-05" dy="10" flood-color="#000000" flood-opacity="0.333" in="SourceGraphic" result="Shadow" stdDeviation="5"/>
</filter>
<filter color-interpolation-filters="sRGB" filterUnits="userSpaceOnUse" height="427.398" id="Filter_6" width="200.295" x="682.73" y="111.984">
<feDropShadow dx="-3.67321e-05" dy="10" flood-color="#000000" flood-opacity="0.333" in="SourceGraphic" result="Shadow" stdDeviation="5"/>
</filter>
<filter color-interpolation-filters="sRGB" filterUnits="userSpaceOnUse" height="234.647" id="Filter_7" width="186.934" x="747.98" y="773.579">
<feDropShadow dx="-3.67321e-05" dy="10" flood-color="#000000" flood-opacity="0.333" in="SourceGraphic" result="Shadow" stdDeviation="5"/>
</filter>
<filter color-interpolation-filters="sRGB" filterUnits="userSpaceOnUse" height="235.185" id="Filter_8" width="213.451" x="392.079" y="773.222">
<feDropShadow dx="-3.67321e-05" dy="10" flood-color="#000000" flood-opacity="0.333" in="SourceGraphic" result="Shadow" stdDeviation="5"/>
</filter>
<filter color-interpolation-filters="sRGB" filterUnits="userSpaceOnUse" height="234.504" id="Filter_9" width="174.91" x="588.062" y="773.815">
<feDropShadow dx="-3.67321e-05" dy="10" flood-color="#000000" flood-opacity="0.333" in="SourceGraphic" result="Shadow" stdDeviation="5"/>
</filter>
<filter color-interpolation-filters="sRGB" filterUnits="userSpaceOnUse" height="183.231" id="Filter_10" width="220.975" x="790.795" y="483.913">
<feDropShadow dx="-3.67321e-05" dy="10" flood-color="#000000" flood-opacity="0.333" in="SourceGraphic" result="Shadow" stdDeviation="5"/>
</filter>
<filter color-interpolation-filters="sRGB" filterUnits="userSpaceOnUse" height="347.873" id="Filter_11" width="304.261" x="269.815" y="355.002">
<feDropShadow dx="-3.67321e-05" dy="10" flood-color="#000000" flood-opacity="0.333" in="SourceGraphic" result="Shadow" stdDeviation="5"/>
</filter>
<filter color-interpolation-filters="sRGB" filterUnits="userSpaceOnUse" height="234.264" id="Filter_12" width="76.2241" x="316.361" y="773.944">
<feDropShadow dx="-3.67321e-05" dy="10" flood-color="#000000" flood-opacity="0.333" in="SourceGraphic" result="Shadow" stdDeviation="5"/>
</filter>
<filter color-interpolation-filters="sRGB" filterUnits="userSpaceOnUse" height="140.138" id="Filter_13" width="181.286" x="701.451" y="609.139">
<feDropShadow dx="-3.67321e-05" dy="10" flood-color="#000000" flood-opacity="0.333" in="SourceGraphic" result="Shadow" stdDeviation="5"/>
</filter>
<filter color-interpolation-filters="sRGB" filterUnits="userSpaceOnUse" height="134.645" id="Filter_14" width="133.733" x="562.209" y="534.856">
<feDropShadow dx="-3.67321e-05" dy="10" flood-color="#000000" flood-opacity="0.333" in="SourceGraphic" result="Shadow" stdDeviation="5"/>
</filter>
<filter color-interpolation-filters="sRGB" filterUnits="userSpaceOnUse" height="135.09" id="Filter_15" width="133.913" x="331.133" y="534.411">
<feDropShadow dx="-3.67321e-05" dy="10" flood-color="#000000" flood-opacity="0.333" in="SourceGraphic" result="Shadow" stdDeviation="5"/>
</filter>
<filter color-interpolation-filters="sRGB" filterUnits="userSpaceOnUse" height="139.453" id="Filter_16" width="133.415" x="134.711" y="609.139">
<feDropShadow dx="-3.67321e-05" dy="10" flood-color="#000000" flood-opacity="0.333" in="SourceGraphic" result="Shadow" stdDeviation="5"/>
</filter>
<filter color-interpolation-filters="sRGB" filterUnits="userSpaceOnUse" height="98.664" id="Filter_17" width="129.583" x="405.749" y="44.0265">
<feDropShadow dx="-3.67321e-05" dy="10" flood-color="#000000" flood-opacity="0.333" in="SourceGraphic" result="Shadow" stdDeviation="5"/>
</filter>
<filter color-interpolation-filters="sRGB" filterUnits="userSpaceOnUse" height="126.927" id="Filter_18" width="127.957" x="12.2295" y="417.765">
<feDropShadow dx="-3.67321e-05" dy="10" flood-color="#000000" flood-opacity="0.333" in="SourceGraphic" result="Shadow" stdDeviation="5"/>
</filter>
<filter color-interpolation-filters="sRGB" filterUnits="userSpaceOnUse" height="75.8197" id="Filter_19" width="106.11" x="292.792" y="111.644">
<feDropShadow dx="-3.67321e-05" dy="10" flood-color="#000000" flood-opacity="0.333" in="SourceGraphic" result="Shadow" stdDeviation="5"/>
</filter>
<filter color-interpolation-filters="sRGB" filterUnits="userSpaceOnUse" height="87.4889" id="Filter_20" width="87.194" x="120.197" y="172.224">
<feDropShadow dx="-3.67321e-05" dy="10" flood-color="#000000" flood-opacity="0.333" in="SourceGraphic" result="Shadow" stdDeviation="5"/>
</filter>
<filter color-interpolation-filters="sRGB" filterUnits="userSpaceOnUse" height="82.1275" id="Filter_21" width="82.9732" x="174.332" y="110.327">
<feDropShadow dx="-3.67321e-05" dy="10" flood-color="#000000" flood-opacity="0.333" in="SourceGraphic" result="Shadow" stdDeviation="5"/>
</filter>
<filter color-interpolation-filters="sRGB" filterUnits="userSpaceOnUse" height="101.76" id="Filter_22" width="100.399" x="272.427" y="354.873">
<feDropShadow dx="-3.67321e-05" dy="10" flood-color="#000000" flood-opacity="0.333" in="SourceGraphic" result="Shadow" stdDeviation="5"/>
</filter>
<filter color-interpolation-filters="sRGB" filterUnits="userSpaceOnUse" height="74.1033" id="Filter_23" width="73.2836" x="67.6368" y="584.304">
<feDropShadow dx="-3.67321e-05" dy="10" flood-color="#000000" flood-opacity="0.333" in="SourceGraphic" result="Shadow" stdDeviation="5"/>
</filter>
<filter color-interpolation-filters="sRGB" filterUnits="userSpaceOnUse" height="73.8548" id="Filter_24" width="71.988" x="64.8438" y="326.614">
<feDropShadow dx="-3.67321e-05" dy="10" flood-color="#000000" flood-opacity="0.333" in="SourceGraphic" result="Shadow" stdDeviation="5"/>
</filter>
<filter color-interpolation-filters="sRGB" filterUnits="userSpaceOnUse" height="73.1924" id="Filter_25" width="72.3843" x="874.031" y="383.441">
<feDropShadow dx="-3.67321e-05" dy="10" flood-color="#000000" flood-opacity="0.333" in="SourceGraphic" result="Shadow" stdDeviation="5"/>
</filter>
<filter color-interpolation-filters="sRGB" filterUnits="userSpaceOnUse" height="70.4946" id="Filter_26" width="70.5799" x="883.809" y="314.027">
<feDropShadow dx="-3.67321e-05" dy="10" flood-color="#000000" flood-opacity="0.333" in="SourceGraphic" result="Shadow" stdDeviation="5"/>
</filter>
<filter color-interpolation-filters="sRGB" filterUnits="userSpaceOnUse" height="64.6913" id="Filter_27" width="64.439" x="12.5683" y="572.914">
<feDropShadow dx="-3.67321e-05" dy="10" flood-color="#000000" flood-opacity="0.333" in="SourceGraphic" result="Shadow" stdDeviation="5"/>
</filter>
<filter color-interpolation-filters="sRGB" filterUnits="userSpaceOnUse" height="41.9041" id="Filter_28" width="104.045" x="467.088" y="659.922">
<feDropShadow dx="-3.67321e-05" dy="10" flood-color="#000000" flood-opacity="0.333" in="SourceGraphic" result="Shadow" stdDeviation="5"/>
</filter>
<filter color-interpolation-filters="sRGB" filterUnits="userSpaceOnUse" height="57.5193" id="Filter_29" width="57.0167" x="73.9811" y="668.839">
<feDropShadow dx="-3.67321e-05" dy="10" flood-color="#000000" flood-opacity="0.333" in="SourceGraphic" result="Shadow" stdDeviation="5"/>
</filter>
<filter color-interpolation-filters="sRGB" filterUnits="userSpaceOnUse" height="57.1291" id="Filter_30" width="55.2196" x="70.6702" y="229.625">
<feDropShadow dx="-3.67321e-05" dy="10" flood-color="#000000" flood-opacity="0.333" in="SourceGraphic" result="Shadow" stdDeviation="5"/>
</filter>
<filter color-interpolation-filters="sRGB" filterUnits="userSpaceOnUse" height="52.8875" id="Filter_31" width="53.1417" x="936.723" y="422.467">
<feDropShadow dx="-3.67321e-05" dy="10" flood-color="#000000" flood-opacity="0.333" in="SourceGraphic" result="Shadow" stdDeviation="5"/>
</filter>
<filter color-interpolation-filters="sRGB" filterUnits="userSpaceOnUse" height="71.3358" id="Filter_32" width="55.5928" x="780.496" y="630.743">
<feDropShadow dx="-3.67321e-05" dy="10" flood-color="#000000" flood-opacity="0.333" in="SourceGraphic" result="Shadow" stdDeviation="5"/>
</filter>
<filter color-interpolation-filters="sRGB" filterUnits="userSpaceOnUse" height="38.1619" id="Filter_33" width="91.5048" x="292.416" y="149.607">
<feDropShadow dx="-3.67321e-05" dy="10" flood-color="#000000" flood-opacity="0.333" in="SourceGraphic" result="Shadow" stdDeviation="5"/>
</filter>
<filter color-interpolation-filters="sRGB" filterUnits="userSpaceOnUse" height="48.9428" id="Filter_34" width="48.1202" x="249.832" y="107.456">
<feDropShadow dx="-3.67321e-05" dy="10" flood-color="#000000" flood-opacity="0.333" in="SourceGraphic" result="Shadow" stdDeviation="5"/>
</filter>
<filter color-interpolation-filters="sRGB" filterUnits="userSpaceOnUse" height="48.7596" id="Filter_35" width="48.0376" x="249.987" y="145.775">
<feDropShadow dx="-3.67321e-05" dy="10" flood-color="#000000" flood-opacity="0.333" in="SourceGraphic" result="Shadow" stdDeviation="5"/>
</filter>
<filter color-interpolation-filters="sRGB" filterUnits="userSpaceOnUse" height="48.0787" id="Filter_36" width="47.7438" x="95.4882" y="271.265">
<feDropShadow dx="-3.67321e-05" dy="10" flood-color="#000000" flood-opacity="0.333" in="SourceGraphic" result="Shadow" stdDeviation="5"/>
</filter>
<filter color-interpolation-filters="sRGB" filterUnits="userSpaceOnUse" height="46.1823" id="Filter_37" width="45.7232" x="940.205" y="375.846">
<feDropShadow dx="-3.67321e-05" dy="10" flood-color="#000000" flood-opacity="0.333" in="SourceGraphic" result="Shadow" stdDeviation="5"/>
</filter>
</defs>
<g id="Layer-1" vectornator:layerName="Layer 1">
<path d="M324.964 304.471C261.872 308.118 237.598 362.816 237.598 420.265C237.598 486.137 237.841 552.009 238.291 617.879C238.479 645.465 260.357 674.614 278.507 692.764C296.612 710.869 327.586 725.228 353.392 725.353C446.074 725.803 538.756 726.047 631.438 726.047C669.189 726.047 706.891 698.438 731.979 673.35C772.753 632.575 789.409 565.439 788.143 509.712C788.128 509.058 787.409 508.343 786.756 508.325C771.046 507.876 755.316 507.876 739.606 508.325C738.952 508.343 738.259 509.059 738.219 509.712C737.786 516.863 738.378 524.043 738.219 531.206C737.987 541.673 736.244 552.334 733.366 562.409C723.162 598.121 706.4 629.59 679.975 656.015C654.36 681.63 605.425 680.621 578.741 658.789C569.634 651.337 564.233 643.959 557.94 634.52C557.299 633.559 557.015 631.787 555.86 631.747C530.221 630.847 504.549 631.529 478.894 631.747C470.816 631.815 469.045 639.782 464.333 644.921C454.598 655.542 447.459 661.563 435.905 668.496C425.348 674.83 411.493 674.321 399.849 676.816C365.721 684.13 331.421 675.647 306.242 650.468C278.908 623.134 285.441 565.148 285.441 531.9C285.441 520.47 279.984 505.685 286.134 495.844C292.978 484.894 304.046 477.239 313.176 468.109C331.054 450.231 349.573 432.292 367.26 414.025C384.218 396.511 400.641 379.257 417.877 362.021C419.055 360.843 420.371 359.268 422.037 359.248C442.062 359.004 463.401 359.248 483.055 359.248C504.551 359.248 526.054 359.263 547.539 359.941C553.765 360.138 559.917 391.4 562.1 391.837C576.379 394.692 591.231 392.33 605.783 391.837C609.544 391.709 608.02 384.502 607.863 380.743C607.42 370.111 604.275 359.697 599.543 350.234C587.159 325.465 560.145 305.348 531.591 305.164C462.717 304.72 393.725 300.495 324.964 304.471Z" fill="#05364b" fill-rule="nonzero" filter="url(#Filter)" stroke="none" vectornator:shadowAngle="1.5708" vectornator:shadowColor="#000000" vectornator:shadowOffset="10" vectornator:shadowOpacity="0.333" vectornator:shadowRadius="10"/>
<path d="M53.8516 539.527C80.2702 565.946 128.325 545.345 146.071 518.726C146.534 519.188 147.436 519.459 147.458 520.112C147.905 533.51 146.8 546.939 147.458 560.328C147.506 561.308 148.559 562.353 149.538 562.409C161.076 563.062 172.652 562.578 184.207 562.409C188.881 562.34 198.041 565.003 198.075 560.328C198.534 497.926 197.855 435.519 198.075 373.115C198.212 334.206 224.832 297.43 257.012 278.122C288.054 259.497 328.154 264.254 362.406 264.254C420.651 264.254 478.894 263.561 537.139 263.561C554.116 263.561 579.178 265.622 593.996 276.735C605.227 285.159 615.551 292.05 625.891 302.39C649.504 326.003 649.238 359.67 651.546 390.45C651.595 391.102 652.28 391.817 652.933 391.837C668.181 392.285 683.449 392.285 698.696 391.837C699.35 391.817 700.059 391.103 700.083 390.45C700.528 378.671 700.276 366.873 700.083 355.087C699.95 346.982 697.882 338.654 695.923 330.819C685.764 290.184 656.548 255.745 621.038 234.439C603.464 223.895 576.809 216.516 556.553 216.411C470.344 215.964 384.133 215.718 297.922 215.718C223.847 215.718 156.66 290.989 148.845 361.328C146.062 386.371 147.908 411.713 147.458 436.906C147.4 440.15 148.734 444.036 146.765 446.614C138.631 457.265 127.899 465.654 118.336 475.042C100.695 492.363 83.1715 509.514 65.6391 527.046C64.0758 528.609 55.4015 536.427 53.8516 539.527Z" fill="#05364b" fill-rule="nonzero" filter="url(#Filter_2)" stroke="none" vectornator:shadowAngle="1.5708" vectornator:shadowColor="#000000" vectornator:shadowOffset="10" vectornator:shadowOpacity="0.333" vectornator:shadowRadius="10"/>
<path d="M508.017 38.9055C510.218 43.3077 514.439 47.0672 517.03 51.3863C527.475 68.7933 535.126 87.9468 537.832 108.244C538.393 112.452 541.471 133.119 538.525 134.592C537.655 135.028 507.168 142.913 504.55 142.913C497.235 142.913 485.119 133.923 475.428 133.205C450.544 131.362 425.253 143.635 410.943 165.101C424.921 181.875 456.442 192 476.814 185.209C487.496 181.649 508.505 157.268 514.95 163.714C510.419 172.777 508.508 183.532 503.856 192.836C504.55 193.53 504.55 193.53 505.243 194.223C525.287 184.201 538.438 164.423 561.407 160.247C616.7 150.194 683.016 209.229 707.71 250.387C723.585 276.845 733.374 307.319 736.832 338.446C738.594 354.303 737.958 370.337 738.219 386.29C738.234 387.214 737.706 388.294 738.219 389.063C738.944 390.151 739.687 391.763 740.993 391.837C756.454 392.708 771.978 392.5 787.449 391.837C788.429 391.795 789.248 390.696 789.529 389.757C794.312 373.816 789.274 356.47 788.836 339.833C788.598 330.776 786.986 321.686 785.369 312.791C774.62 253.673 744.512 207.449 702.163 165.101C688.571 151.509 663.71 131.219 643.919 126.272C624.252 121.355 605.202 113.43 584.982 108.937C580.667 107.978 578.929 94.8578 575.968 90.9091C572.268 85.9758 569.11 80.2435 564.874 75.6547C560.328 70.7295 555.746 65.8332 551.006 61.0937C547.014 57.1017 513.468 33.4542 508.017 38.9055Z" fill="#05364b" fill-rule="nonzero" filter="url(#Filter_3)" stroke="none" vectornator:shadowAngle="1.5708" vectornator:shadowColor="#000000" vectornator:shadowOffset="10" vectornator:shadowOpacity="0.333" vectornator:shadowRadius="10"/>
<path d="M450.466 425.812C422.384 453.895 391.991 479.896 366.567 510.405C367.029 511.098 367.12 512.475 367.953 512.485C423.651 513.173 479.361 513.17 535.058 512.485C546.632 512.343 527.595 474.622 538.525 474.349C556.548 473.899 574.587 473.899 592.609 474.349C603.593 474.624 584.26 511.931 596.076 512.485C610.159 513.145 624.281 512.932 638.372 512.485C649.289 512.139 630.377 474.45 641.146 474.349C690.143 473.891 739.146 474.807 788.143 474.349C788.796 474.343 789.51 473.616 789.529 472.962C789.978 457.715 789.978 442.447 789.529 427.199C789.51 426.546 788.605 426.275 450.466 425.812Z" fill="#05364b" fill-rule="nonzero" filter="url(#Filter_4)" stroke="none" vectornator:shadowAngle="1.5708" vectornator:shadowColor="#000000" vectornator:shadowOffset="10" vectornator:shadowOpacity="0.333" vectornator:shadowRadius="10"/>
<path d="M138.444 777.357C127.962 787.839 118.905 800.174 110.015 812.026C108.708 813.77 96.6581 828.597 100.308 828.667C135.895 829.351 171.496 828.442 207.089 828.667C226.613 828.791 229.913 858.656 225.81 870.963C189.134 870.963 141.887 861.057 116.256 895.232C97.8183 919.815 102.737 956.037 103.082 983.985C103.09 984.638 103.815 985.353 104.468 985.371C120.41 985.82 136.378 986.035 152.312 985.371C153.292 985.33 154.34 984.27 154.392 983.291C155.048 970.828 154.221 958.328 154.392 945.849C154.541 934.993 153.322 931.443 160.632 925.047C161.97 923.876 164.474 922.987 166.179 922.967C185.825 922.741 205.471 922.048 225.117 922.274C230.452 922.335 226.442 932.886 226.504 938.221C226.679 953.476 226.525 968.743 227.197 983.985C227.226 984.638 227.93 985.354 228.584 985.371C245.219 985.821 261.872 985.821 278.507 985.371C283.151 985.246 279.918 976.149 279.894 971.504C279.684 930.825 279.643 890.145 279.201 849.469C278.792 811.863 245.606 783.057 138.444 777.357Z" fill="#11252f" fill-rule="nonzero" filter="url(#Filter_5)" stroke="none" vectornator:shadowAngle="1.5708" vectornator:shadowColor="#000000" vectornator:shadowOffset="10" vectornator:shadowOpacity="0.333" vectornator:shadowRadius="10"/>
<path d="M696.616 114.484C695.923 115.177 695.923 115.177 695.23 115.871C709.907 130.548 724.236 145.57 738.913 160.247C740.65 161.985 742.015 164.853 744.46 165.101C758.486 166.524 772.659 164.884 786.756 165.101C802.522 165.343 819.936 185.075 820.038 200.463C820.493 268.876 820.407 337.291 820.732 405.704C820.87 434.827 821.425 463.947 821.425 493.07C821.425 500.47 820.514 507.862 820.732 515.259C820.751 515.912 821.467 516.591 822.118 516.645C827.186 517.068 832.291 516.834 837.373 516.645C845.194 516.356 850.25 503.927 856.787 500.004C858.571 498.934 869.937 493.749 869.962 491.684C871.106 395.079 870.187 298.461 869.962 201.85C869.854 155.793 830.293 119.531 696.616 114.484Z" fill="#05364b" fill-rule="nonzero" filter="url(#Filter_6)" stroke="none" vectornator:shadowAngle="1.5708" vectornator:shadowColor="#000000" vectornator:shadowOffset="10" vectornator:shadowOpacity="0.333" vectornator:shadowRadius="10"/>
<path d="M883.136 776.663C857.203 776.88 828.952 772.959 804.09 782.904C757.225 801.65 746.179 862.976 780.515 897.312C787.748 904.544 801.47 907.461 811.024 907.713C826.044 908.108 841.076 907.964 856.094 908.406C864.126 908.642 867.882 917.751 867.882 924.354C867.882 930.184 861.453 934.659 856.094 934.754C831.135 935.2 806.168 934.994 781.209 935.448C775.058 935.56 778.435 968.219 778.435 974.277C778.435 978.004 776.096 985.277 779.822 985.371C806.624 986.047 833.444 985.588 860.254 985.371C903.396 985.023 938.15 928.909 915.031 890.378C891.901 851.826 866.304 856.402 823.505 856.402C815.413 856.402 813.798 847.098 813.798 841.148C813.798 833.952 824.513 829.481 830.439 829.36C851.931 828.922 873.446 829.562 894.923 828.667C897.609 828.555 900.773 819.742 901.857 817.573C904.099 813.09 922.316 778.752 921.965 778.05C921.673 777.465 921.232 776.687 920.579 776.663C908.106 776.218 895.616 776.559 883.136 776.663Z" fill="#11252f" fill-rule="nonzero" filter="url(#Filter_7)" stroke="none" vectornator:shadowAngle="1.5708" vectornator:shadowColor="#000000" vectornator:shadowOffset="10" vectornator:shadowOpacity="0.333" vectornator:shadowRadius="10"/>
<path d="M511.483 945.155C511.483 957.867 511.038 970.587 511.483 983.291C511.506 983.944 512.227 984.561 512.87 984.678C525.379 986.952 538.292 985.371 551.006 985.371C554.769 985.371 561.966 987.051 562.1 983.291C562.546 970.818 561.655 958.321 562.1 945.849C562.429 936.654 592.183 952.321 592.609 942.382C593.272 926.91 593.058 911.404 592.609 895.925C592.346 886.835 562.612 902.364 562.1 893.152C560.78 869.381 563.129 845.538 562.794 821.733C562.784 821.08 561.992 820.639 561.407 820.346C560.993 820.14 560.363 820.036 560.02 820.346C555.415 824.513 551.154 829.047 546.846 833.521C545.142 835.29 543.645 837.25 541.992 839.068C537.172 844.37 512.344 867.8 511.483 872.35C510.237 878.936 511.915 885.769 511.483 892.458C511.441 893.111 510.75 893.822 510.097 893.845C497.161 894.291 484.203 894.291 471.267 893.845C470.614 893.822 470.343 892.92 469.881 892.458C494.808 863.97 519.135 834.979 544.072 806.479C546.858 803.295 568.103 780.349 566.954 778.05C566.662 777.465 566.221 776.678 565.567 776.663C545.927 776.212 526.186 774.791 506.63 776.663C504.64 776.854 484.884 800.822 482.361 803.705C461.974 827.005 441.828 850.522 421.344 873.737C418.767 876.657 404.909 889.437 404.703 893.152C401.89 943.788 447.721 944.462 485.828 944.462C493.47 944.462 503.231 942.404 511.483 945.155Z" fill="#11252f" fill-rule="nonzero" filter="url(#Filter_8)" stroke="none" vectornator:shadowAngle="1.5708" vectornator:shadowColor="#000000" vectornator:shadowOffset="10" vectornator:shadowOpacity="0.333" vectornator:shadowRadius="10"/>
<path d="M709.097 776.663C690.899 776.991 666.812 777.175 650.853 789.144C640.188 797.144 628.933 805.132 621.038 816.186C589.323 860.587 595.187 920.691 633.519 959.023C664.523 990.027 703.922 985.856 746.54 985.371C747.193 985.364 747.902 984.638 747.927 983.985C748.371 972.205 747.753 960.408 747.927 948.622C747.991 944.225 751.629 935.559 747.233 935.448C729.442 934.997 711.638 935.668 693.843 935.448C672.524 935.185 655.593 906.695 654.32 887.604C653.083 869.052 657.654 835.627 682.055 830.747C702.986 826.561 725.24 829.571 746.54 827.974C749.84 827.726 748.62 821.576 748.62 818.266C748.62 805.092 752.786 791.242 748.62 778.744C748.31 777.813 747.519 776.715 746.54 776.663C734.076 776.007 721.576 776.439 709.097 776.663Z" fill="#11252f" fill-rule="nonzero" filter="url(#Filter_9)" stroke="none" vectornator:shadowAngle="1.5708" vectornator:shadowColor="#000000" vectornator:shadowOffset="10" vectornator:shadowOpacity="0.333" vectornator:shadowRadius="10"/>
<path d="M931.673 611.639C932.135 611.87 932.543 612.332 933.059 612.332C951.089 612.332 969.119 612.084 987.143 611.639C994.487 611.457 998.931 601.857 998.931 595.691C998.931 590.75 991.604 585.344 987.143 585.29C968.653 585.067 950.152 585.273 931.673 584.597C931.019 584.573 930.307 583.863 930.286 583.21C929.839 569.35 929.839 555.468 930.286 541.607C930.307 540.954 931.019 540.236 931.673 540.22C949.926 539.77 968.192 540.438 986.45 540.22C990.706 540.17 996.574 537.445 998.237 533.287C1000.91 526.61 998.572 514.011 989.223 513.872C974.2 513.648 959.174 513.536 944.154 513.178C939.252 513.062 933.059 514.565 929.593 511.098C932.902 504.48 930.999 496.275 930.286 488.91C930.191 487.934 929.185 486.881 928.206 486.83C915.742 486.174 903.236 486.384 890.763 486.83C887.287 486.954 890.071 498.841 888.683 507.631C888.357 509.695 880.262 509.745 878.282 510.405C872.73 512.256 868.386 515.791 863.721 519.419C857.268 524.438 855.19 530.17 851.24 536.753C850.812 537.468 850.686 538.79 849.854 538.834C837.159 539.502 824.422 538.388 811.718 538.834C811.168 538.853 809.673 541.006 809.637 541.607C809.097 550.792 809.213 559.544 807.557 568.649C806.564 574.111 802.615 583.282 803.397 588.757C803.49 589.404 804.13 590.123 804.784 590.144C818.644 590.591 832.546 589.279 846.387 590.144C848.499 590.276 860.375 607.599 863.721 610.945C870.548 617.772 878.993 616.845 887.296 619.959C895.333 622.973 882.384 643.958 890.07 644.228C902.774 644.673 915.511 644.884 928.206 644.228C935.681 643.841 924.381 618.931 931.673 611.639Z" fill="#11252f" fill-rule="nonzero" filter="url(#Filter_10)" stroke="none" vectornator:shadowAngle="1.5708" vectornator:shadowColor="#000000" vectornator:shadowOffset="10" vectornator:shadowOpacity="0.333" vectornator:shadowRadius="10"/>
<path d="M422.037 357.861C406.832 365.464 397.309 381.203 385.288 393.223C362.495 416.017 340.788 439.803 318.03 462.562C306.936 473.656 291.764 481.811 284.748 495.844C279.578 506.182 284.29 518.957 284.054 530.513C283.569 554.284 282.858 579.694 284.748 603.318C286.77 628.597 307.492 665.515 333.284 671.963C345.898 675.116 357.454 677.931 370.727 679.59C379.464 680.682 386.805 680.589 398.462 679.59C399.114 679.534 399.387 678.666 399.849 678.203C396.244 674.598 389.009 676.974 383.901 676.123C375.249 674.681 364.126 671.866 356.859 666.416C314.198 634.419 313.176 613.576 313.176 560.328C313.176 546.921 312.706 533.518 312.483 520.112C312.46 518.726 311.584 517.008 312.483 515.952C327.38 498.464 346.17 482.958 362.406 466.722C386.791 442.338 410.827 417.608 435.211 393.223C436.029 392.406 436.83 391.163 437.985 391.143C478.658 390.465 519.344 391.6 560.02 391.143C560.674 391.136 561.164 390.364 561.407 389.757C563.076 385.585 551.901 358.782 547.539 358.554C526.304 357.448 505.011 358.776 483.748 358.554C476.648 358.48 485.301 356.779 422.037 357.861Z" fill="#5ba5b5" fill-rule="nonzero" filter="url(#Filter_11)" stroke="none" vectornator:shadowAngle="1.5708" vectornator:shadowColor="#000000" vectornator:shadowOffset="10" vectornator:shadowOpacity="0.333" vectornator:shadowRadius="10"/>
<path d="M356.166 776.663C347.612 776.787 339.04 776.701 330.511 777.357C329.859 777.407 329.129 778.09 329.124 778.744C328.665 844.613 328.902 910.486 329.124 976.357C329.134 979.441 328.122 985.283 331.204 985.371C346.914 985.82 362.644 985.82 378.354 985.371C379.008 985.353 379.737 984.638 379.741 983.985C380.2 915.341 380.2 846.693 379.741 778.05C379.737 777.396 379.007 776.702 378.354 776.663C370.971 776.229 363.561 776.556 356.166 776.663Z" fill="#05364b" fill-rule="nonzero" filter="url(#Filter_12)" stroke="none" vectornator:shadowAngle="1.5708" vectornator:shadowColor="#000000" vectornator:shadowOffset="10" vectornator:shadowOpacity="0.333" vectornator:shadowRadius="10"/>
<path d="M797.85 611.639C789.238 620.251 788.424 645.089 779.129 656.708C759.418 681.346 738.914 704.69 713.951 724.66C715.623 727.168 715.458 726.761 718.111 726.74C746.309 726.513 774.509 726.487 802.704 726.047C844.178 725.399 873.406 674.492 869.962 636.6C869.747 634.243 860.916 632.59 858.868 631.053C851.35 625.415 845.082 619.144 797.85 611.639Z" fill="#11252f" fill-rule="nonzero" filter="url(#Filter_13)" stroke="none" vectornator:shadowAngle="1.5708" vectornator:shadowColor="#000000" vectornator:shadowOffset="10" vectornator:shadowOpacity="0.333" vectornator:shadowRadius="10"/>
<path d="M627.278 537.447C553.549 542.481 558.974 647.001 633.519 647.001C666.574 647.001 683.442 612.863 683.442 584.597C683.442 557.216 651.619 535.785 627.278 537.447Z" fill="#05364b" fill-rule="nonzero" filter="url(#Filter_14)" stroke="none" vectornator:shadowAngle="1.5708" vectornator:shadowColor="#000000" vectornator:shadowOffset="10" vectornator:shadowOpacity="0.333" vectornator:shadowRadius="10"/>
<path d="M388.755 538.14C321.97 548.721 332.374 647.001 399.849 647.001C435.114 647.001 452.546 614.875 452.546 583.903C452.546 579.48 449.756 570.939 446.999 567.262C428.479 542.569 419.13 533.328 388.755 538.14Z" fill="#05364b" fill-rule="nonzero" filter="url(#Filter_15)" stroke="none" vectornator:shadowAngle="1.5708" vectornator:shadowColor="#000000" vectornator:shadowOffset="10" vectornator:shadowOpacity="0.333" vectornator:shadowRadius="10"/>
<path d="M150.232 611.639C149.618 611.945 147.492 612.825 147.458 613.719C147.014 625.267 147.266 636.833 147.458 648.388C147.672 661.204 152.603 680.672 160.632 691.378C168.556 701.943 180.591 725.213 193.221 725.353C213.561 725.579 233.9 726.273 254.239 726.047C254.893 726.039 255.163 725.122 255.626 724.66C239.812 708.846 213.783 694.578 207.782 670.576C204.244 656.422 199.566 644.13 198.768 628.973C198.475 623.391 200.641 616.285 150.232 611.639Z" fill="#11252f" fill-rule="nonzero" filter="url(#Filter_16)" stroke="none" vectornator:shadowAngle="1.5708" vectornator:shadowColor="#000000" vectornator:shadowOffset="10" vectornator:shadowOpacity="0.333" vectornator:shadowRadius="10"/>
<path d="M445.612 46.5327C441.973 46.4414 420.156 47.3219 418.57 52.0797C414.795 63.4071 445.492 99.1093 450.466 104.083C465.865 119.483 492.185 120.772 512.177 120.031C517.722 119.826 519.732 120.832 522.578 116.564C524.537 113.625 514.676 82.2224 510.79 77.0414C491.588 51.4391 477.019 47.3199 445.612 46.5327Z" fill="#05364b" fill-rule="nonzero" filter="url(#Filter_17)" stroke="none" vectornator:shadowAngle="1.5708" vectornator:shadowColor="#000000" vectornator:shadowOffset="10" vectornator:shadowOpacity="0.333" vectornator:shadowRadius="10"/>
<path d="M89.9074 420.265C52.4967 423.666 24.7296 452.976 24.7296 490.99C24.7296 500.876 28.6282 514.997 35.8237 522.192C53.0941 510.679 65.4042 493.067 80.2001 478.509C95.9279 463.035 111.863 447.768 127.35 432.053C128.761 430.621 125.323 428.959 124.577 428.586C115.673 424.134 106.166 421.961 89.9074 420.265Z" fill="#05364b" fill-rule="nonzero" filter="url(#Filter_18)" stroke="none" vectornator:shadowAngle="1.5708" vectornator:shadowColor="#000000" vectornator:shadowOffset="10" vectornator:shadowOpacity="0.333" vectornator:shadowRadius="10"/>
<path d="M306.936 155.394C312.013 150.317 321.282 153.337 328.431 154.007C329.407 154.098 329.817 155.394 330.511 156.087C330.164 156.78 330.164 156.78 329.817 157.474C332.244 159.901 335.783 164.154 339.525 164.408C351.746 165.236 364.026 164.216 376.274 164.408C379.542 164.459 385.843 166.286 385.981 163.021C386.645 147.318 386.43 131.581 385.981 115.871C385.963 115.217 385.248 114.496 384.595 114.484C358.943 114.03 333.28 114.03 307.629 114.484C307.11 114.493 305.56 116.664 305.549 117.258C305.326 129.505 305.104 141.765 305.549 154.007C305.573 154.66 306.474 154.931 306.936 155.394Z" fill="#05364b" fill-rule="nonzero" filter="url(#Filter_19)" stroke="none" vectornator:shadowAngle="1.5708" vectornator:shadowColor="#000000" vectornator:shadowOffset="10" vectornator:shadowOpacity="0.333" vectornator:shadowRadius="10"/>
<path d="M162.019 174.808C119.195 177.955 124.789 237.213 168.953 237.213C187.579 237.213 198.294 212.324 193.915 196.996C189.591 181.863 175.753 173.799 162.019 174.808Z" fill="#05364b" fill-rule="nonzero" filter="url(#Filter_20)" stroke="none" vectornator:shadowAngle="1.5708" vectornator:shadowColor="#000000" vectornator:shadowOffset="10" vectornator:shadowOpacity="0.333" vectornator:shadowRadius="10"/>
<path d="M212.636 113.097C172.935 118.049 181.666 169.955 220.957 169.955C239.141 169.955 248.929 145.585 243.145 131.125C237.581 117.215 225.74 111.463 212.636 113.097Z" fill="#05364b" fill-rule="nonzero" filter="url(#Filter_21)" stroke="none" vectornator:shadowAngle="1.5708" vectornator:shadowColor="#000000" vectornator:shadowOffset="10" vectornator:shadowOpacity="0.333" vectornator:shadowRadius="10"/>
<path d="M286.828 434.133C311.64 410.207 335.686 385.422 359.633 360.635C359.992 360.263 360.095 359.71 360.326 359.248C359.864 358.785 359.592 357.894 358.939 357.861C350.168 357.422 341.334 357.028 332.591 357.861C331.289 357.985 330.734 359.702 329.817 360.635C316.867 373.801 303.845 386.899 290.988 400.157C283.317 408.068 284.891 421.741 285.441 432.746C285.474 433.399 286.366 433.671 286.828 434.133Z" fill="#5ba5b5" fill-rule="nonzero" filter="url(#Filter_22)" stroke="none" vectornator:shadowAngle="1.5708" vectornator:shadowColor="#000000" vectornator:shadowOffset="10" vectornator:shadowOpacity="0.333" vectornator:shadowRadius="10"/>
<path d="M99.6148 587.37C69.741 591.968 76.1313 635.907 105.855 635.907C122.486 635.907 135.732 610.805 123.883 597.771C115.211 588.232 112.004 585.463 99.6148 587.37Z" fill="#05364b" fill-rule="nonzero" filter="url(#Filter_23)" stroke="none" vectornator:shadowAngle="1.5708" vectornator:shadowColor="#000000" vectornator:shadowOffset="10" vectornator:shadowOpacity="0.333" vectornator:shadowRadius="10"/>
<path d="M98.9214 329.432C68.1376 335.648 71.18 377.969 102.388 377.969C127.608 377.969 129.783 347.813 115.563 333.593C111.626 329.656 103.703 328.467 98.9214 329.432Z" fill="#05364b" fill-rule="nonzero" filter="url(#Filter_24)" stroke="none" vectornator:shadowAngle="1.5708" vectornator:shadowColor="#000000" vectornator:shadowOffset="10" vectornator:shadowOpacity="0.333" vectornator:shadowRadius="10"/>
<path d="M906.018 386.29C874.775 391.323 883.886 434.133 913.645 434.133C928.697 434.133 936.653 415.508 933.059 402.931C929.306 389.793 917.372 384.46 906.018 386.29Z" fill="#05364b" fill-rule="nonzero" filter="url(#Filter_25)" stroke="none" vectornator:shadowAngle="1.5708" vectornator:shadowColor="#000000" vectornator:shadowOffset="10" vectornator:shadowOpacity="0.333" vectornator:shadowRadius="10"/>
<path d="M915.031 316.951C885.774 321.527 892.707 362.021 922.659 362.021C936.565 362.021 945.192 342.776 940.687 331.512C935.704 319.056 926.723 315.123 915.031 316.951Z" fill="#05364b" fill-rule="nonzero" filter="url(#Filter_26)" stroke="none" vectornator:shadowAngle="1.5708" vectornator:shadowColor="#000000" vectornator:shadowOffset="10" vectornator:shadowOpacity="0.333" vectornator:shadowRadius="10"/>
<path d="M39.984 576.276C15.902 581.081 22.9889 615.106 46.9178 615.106C60.5677 615.106 70.1156 594.964 60.7854 584.597C53.0419 575.993 51.2954 574.019 39.984 576.276Z" fill="#05364b" fill-rule="nonzero" filter="url(#Filter_27)" stroke="none" vectornator:shadowAngle="1.5708" vectornator:shadowColor="#000000" vectornator:shadowOffset="10" vectornator:shadowOpacity="0.333" vectornator:shadowRadius="10"/>
<path d="M479.588 676.816C480.05 677.51 480.142 678.874 480.975 678.897C506.39 679.577 531.827 679.351 557.247 678.897C557.9 678.885 558.171 677.972 558.633 677.51C553.939 672.502 550.922 663.394 544.072 662.949C527.697 661.886 511.251 662.724 494.842 662.949C488.902 663.03 484.764 672.934 479.588 676.816Z" fill="#5ba5b5" fill-rule="nonzero" filter="url(#Filter_28)" stroke="none" vectornator:shadowAngle="1.5708" vectornator:shadowColor="#000000" vectornator:shadowOffset="10" vectornator:shadowOpacity="0.333" vectornator:shadowRadius="10"/>
<path d="M98.9214 671.963C78.1221 676.276 85.6086 703.858 105.162 703.858C115.311 703.858 121.574 687.992 116.949 680.283C111.972 671.987 107.501 670.184 98.9214 671.963Z" fill="#05364b" fill-rule="nonzero" filter="url(#Filter_29)" stroke="none" vectornator:shadowAngle="1.5708" vectornator:shadowColor="#000000" vectornator:shadowOffset="10" vectornator:shadowOpacity="0.333" vectornator:shadowRadius="10"/>
<path d="M94.7611 232.359C77.555 240.194 79.5879 264.254 100.308 264.254C116.962 264.254 116.731 240.687 105.162 233.746C102.717 232.279 96.0228 231.784 94.7611 232.359Z" fill="#05364b" fill-rule="nonzero" filter="url(#Filter_30)" stroke="none" vectornator:shadowAngle="1.5708" vectornator:shadowColor="#000000" vectornator:shadowOffset="10" vectornator:shadowOpacity="0.333" vectornator:shadowRadius="10"/>
<path d="M960.795 425.119C941.591 427.897 948.275 452.854 966.342 452.854C968.741 452.854 970.327 450.726 971.889 449.387C984.216 438.821 973.638 423.261 960.795 425.119Z" fill="#05364b" fill-rule="nonzero" filter="url(#Filter_31)" stroke="none" vectornator:shadowAngle="1.5708" vectornator:shadowColor="#000000" vectornator:shadowOffset="10" vectornator:shadowOpacity="0.333" vectornator:shadowRadius="10"/>
<path d="M813.104 634.52C807.343 637.822 806.076 651.397 803.397 658.095C801.456 662.948 792.996 672.18 792.996 676.816C792.996 679.9 799.168 680.093 802.01 678.897C810.383 675.371 824.82 645.114 823.505 635.907C823.01 632.445 816.139 632.781 813.104 634.52Z" fill="#5ba5b5" fill-rule="nonzero" filter="url(#Filter_32)" stroke="none" vectornator:shadowAngle="1.5708" vectornator:shadowColor="#000000" vectornator:shadowOffset="10" vectornator:shadowOpacity="0.333" vectornator:shadowRadius="10"/>
<path d="M339.525 163.021C337.549 161.045 338.501 162.178 336.751 159.554C333.779 161.04 333.824 160.094 331.204 157.474C339.56 144.939 361.102 164.325 371.42 154.007C370.958 153.545 370.687 152.634 370.034 152.62C349.468 152.168 328.874 151.736 308.323 152.62C303.471 152.829 304.1 164.917 308.323 165.101C318.254 165.533 328.219 165.069 338.138 164.408C338.79 164.364 339.063 163.483 339.525 163.021Z" fill="#11252f" fill-rule="nonzero" filter="url(#Filter_33)" stroke="none" vectornator:shadowAngle="1.5708" vectornator:shadowColor="#000000" vectornator:shadowOffset="10" vectornator:shadowOpacity="0.333" vectornator:shadowRadius="10"/>
<path d="M270.88 110.324C256.197 113.378 261.999 133.899 276.427 133.899C289.221 133.899 289.311 106.489 270.88 110.324Z" fill="#1b455a" fill-rule="nonzero" filter="url(#Filter_34)" stroke="none" vectornator:shadowAngle="1.5708" vectornator:shadowColor="#000000" vectornator:shadowOffset="10" vectornator:shadowOpacity="0.333" vectornator:shadowRadius="10"/>
<path d="M270.88 148.46C256.563 150.467 262.149 172.035 275.734 172.035C289.427 172.035 289.597 145.836 270.88 148.46Z" fill="#05364b" fill-rule="nonzero" filter="url(#Filter_35)" stroke="none" vectornator:shadowAngle="1.5708" vectornator:shadowColor="#000000" vectornator:shadowOffset="10" vectornator:shadowOpacity="0.333" vectornator:shadowRadius="10"/>
<path d="M116.949 273.962C101.77 276.196 107.553 296.843 121.803 296.843C133.767 296.843 135.169 271.281 116.949 273.962Z" fill="#1b455a" fill-rule="nonzero" filter="url(#Filter_36)" stroke="none" vectornator:shadowAngle="1.5708" vectornator:shadowColor="#000000" vectornator:shadowOffset="10" vectornator:shadowOpacity="0.333" vectornator:shadowRadius="10"/>
<path d="M960.795 378.662C947.097 381.862 952.031 400.765 966.342 399.464C977.927 398.411 974.767 375.399 960.795 378.662Z" fill="#05364b" fill-rule="nonzero" filter="url(#Filter_37)" stroke="none" vectornator:shadowAngle="1.5708" vectornator:shadowColor="#000000" vectornator:shadowOffset="10" vectornator:shadowOpacity="0.333" vectornator:shadowRadius="10"/>
</g>
</svg>
