<?xml version="1.0" encoding="UTF-8" standalone="no"?>
<!DOCTYPE svg PUBLIC "-//W3C//DTD SVG 1.1//EN" "http://www.w3.org/Graphics/SVG/1.1/DTD/svg11.dtd">
<!-- Created with Vectornator (http://vectornator.io/) -->
<svg height="100%" stroke-miterlimit="10" style="fill-rule:nonzero;clip-rule:evenodd;stroke-linecap:round;stroke-linejoin:round;" version="1.1" viewBox="0 0 960 300" width="100%" xml:space="preserve" xmlns="http://www.w3.org/2000/svg" xmlns:vectornator="http://vectornator.io" xmlns:xlink="http://www.w3.org/1999/xlink">
<defs>
<filter color-interpolation-filters="sRGB" filterUnits="userSpaceOnUse" height="255.553" id="Filter" width="237.801" x="-7.76873" y="34.7173">
<feDropShadow dx="-4.28575e-05" dy="11.6676" flood-color="#000000" flood-opacity="0.333" in="SourceGraphic" result="Shadow" stdDeviation="5.8338"/>
</filter>
<filter color-interpolation-filters="sRGB" filterUnits="userSpaceOnUse" height="256.869" id="Filter_2" width="215.424" x="752.345" y="33.3294">
<feDropShadow dx="-4.28575e-05" dy="11.6676" flood-color="#000000" flood-opacity="0.333" in="SourceGraphic" result="Shadow" stdDeviation="5.8338"/>
</filter>
<filter color-interpolation-filters="sRGB" filterUnits="userSpaceOnUse" height="257.453" id="Filter_3" width="245.923" x="342.99" y="32.9412">
<feDropShadow dx="-4.28575e-05" dy="11.6676" flood-color="#000000" flood-opacity="0.333" in="SourceGraphic" result="Shadow" stdDeviation="5.8338"/>
</filter>
<filter color-interpolation-filters="sRGB" filterUnits="userSpaceOnUse" height="256.714" id="Filter_4" width="201.594" x="568.408" y="33.5862">
<feDropShadow dx="-4.28575e-05" dy="11.6676" flood-color="#000000" flood-opacity="0.333" in="SourceGraphic" result="Shadow" stdDeviation="5.8338"/>
</filter>
<filter color-interpolation-filters="sRGB" filterUnits="userSpaceOnUse" height="256.453" id="Filter_5" width="88.0866" x="255.9" y="33.7262">
<feDropShadow dx="-4.28575e-05" dy="11.6676" flood-color="#000000" flood-opacity="0.333" in="SourceGraphic" result="Shadow" stdDeviation="5.8338"/>
</filter>
</defs>
<clipPath id="ArtboardFrame">
<rect height="300" width="960" x="0" y="0"/>
</clipPath>
<g clip-path="url(#ArtboardFrame)" id="Layer-1" vectornator:layerName="Layer 1">
<path d="M51.4682 37.6342C39.4113 49.0193 28.994 62.4159 18.7698 75.2886C17.2655 77.1826 3.40621 93.2866 7.60445 93.3628C48.5364 94.1061 89.4842 93.1181 130.423 93.3628C152.879 93.497 156.675 125.934 151.956 139.301C109.772 139.301 55.4284 128.541 25.9475 165.659C4.74063 192.36 10.3977 231.701 10.7945 262.055C10.8038 262.765 11.638 263.541 12.3896 263.561C30.7253 264.049 49.0915 264.282 67.4186 263.561C68.5455 263.517 69.7519 262.365 69.8112 261.302C70.5657 247.765 69.6146 234.189 69.8112 220.635C69.9822 208.844 68.5809 204.989 76.9889 198.042C78.5279 196.771 81.4078 195.804 83.3691 195.783C105.966 195.538 128.562 194.785 151.158 195.03C157.295 195.096 152.683 206.556 152.754 212.351C152.955 228.92 152.778 245.501 153.551 262.055C153.584 262.764 154.394 263.542 155.146 263.561C174.28 264.049 193.434 264.049 212.568 263.561C217.909 263.425 214.19 253.545 214.163 248.499C213.922 204.318 213.874 160.135 213.365 115.955C212.895 75.1122 174.725 43.8256 51.4682 37.6342Z" fill="#11252f" fill-rule="nonzero" filter="url(#Filter)" stroke="none" vectornator:shadowAngle="1.5708" vectornator:shadowColor="#000000" vectornator:shadowOffset="11.6676" vectornator:shadowOpacity="0.333" vectornator:shadowRadius="11.6676"/>
<path d="M908.007 36.8811C878.179 37.1158 845.685 32.8579 817.09 43.6589C763.186 64.0191 750.481 130.626 789.974 167.919C798.293 175.774 814.076 178.942 825.065 179.215C842.341 179.644 859.63 179.488 876.904 179.968C886.142 180.225 890.462 190.118 890.462 197.289C890.462 203.621 883.068 208.482 876.904 208.585C848.196 209.07 819.479 208.846 790.771 209.339C783.697 209.46 787.581 244.932 787.581 251.512C787.581 255.559 784.891 263.459 789.176 263.561C820.004 264.295 850.852 263.796 881.689 263.561C931.311 263.183 971.284 202.237 944.693 160.388C918.088 118.516 888.647 123.486 839.42 123.486C830.113 123.486 828.255 113.381 828.255 106.918C828.255 99.1024 840.579 94.2472 847.396 94.1159C872.115 93.6395 896.862 94.3347 921.565 93.3628C924.654 93.2412 928.293 83.6689 929.54 81.3134C932.119 76.444 953.072 39.1496 952.668 38.3873C952.332 37.7522 951.825 36.9064 951.073 36.8811C936.727 36.3973 922.362 36.7681 908.007 36.8811Z" fill="#11252f" fill-rule="nonzero" filter="url(#Filter_2)" stroke="none" vectornator:shadowAngle="1.5708" vectornator:shadowColor="#000000" vectornator:shadowOffset="11.6676" vectornator:shadowOpacity="0.333" vectornator:shadowRadius="11.6676"/>
<path d="M480.535 219.882C480.535 233.688 480.023 247.504 480.535 261.302C480.562 262.011 481.39 262.681 482.13 262.808C496.518 265.278 511.37 263.561 525.994 263.561C530.322 263.561 538.6 265.386 538.754 261.302C539.267 247.755 538.242 234.182 538.754 220.635C539.132 210.649 573.355 227.665 573.845 216.869C574.608 200.066 574.361 183.224 573.845 166.412C573.542 156.539 539.343 173.405 538.754 163.4C537.235 137.583 539.938 111.687 539.552 85.8319C539.541 85.122 538.629 84.6433 537.957 84.3257C537.481 84.1012 536.756 83.9889 536.362 84.3257C531.065 88.8512 526.164 93.7757 521.209 98.6344C519.249 100.557 517.527 102.685 515.626 104.659C510.082 110.418 481.525 135.865 480.535 140.807C479.102 147.96 481.032 155.382 480.535 162.647C480.487 163.356 479.692 164.129 478.94 164.153C464.062 164.638 449.157 164.638 434.279 164.153C433.527 164.129 433.216 163.149 432.684 162.647C461.355 131.705 489.336 100.218 518.019 69.2639C521.223 65.8063 545.659 40.8837 544.337 38.3873C544.001 37.7522 543.494 36.8974 542.742 36.8811C520.151 36.3907 497.446 34.8474 474.953 36.8811C472.664 37.088 449.941 63.1204 447.039 66.2516C423.59 91.5573 400.418 117.1 376.857 142.314C373.894 145.485 357.954 159.366 357.717 163.4C354.481 218.397 407.196 219.129 451.027 219.129C459.816 219.129 471.044 216.894 480.535 219.882Z" fill="#11252f" fill-rule="nonzero" filter="url(#Filter_3)" stroke="none" vectornator:shadowAngle="1.5708" vectornator:shadowColor="#000000" vectornator:shadowOffset="11.6676" vectornator:shadowOpacity="0.333" vectornator:shadowRadius="11.6676"/>
<path d="M707.829 36.8811C686.897 37.2363 659.193 37.4372 640.837 50.4367C628.57 59.1247 615.625 67.8015 606.544 79.8072C570.066 128.031 576.81 193.311 620.899 234.944C656.56 268.617 701.877 264.087 750.895 263.561C751.647 263.553 752.462 262.764 752.49 262.055C753.002 249.261 752.291 236.448 752.49 223.647C752.565 218.872 756.749 209.459 751.693 209.339C731.23 208.849 710.752 209.577 690.284 209.339C665.763 209.053 646.289 178.11 644.825 157.375C643.402 137.226 648.66 100.923 676.726 95.6221C700.8 91.0754 726.397 94.3447 750.895 92.6097C754.691 92.3409 753.288 85.6607 753.288 82.0665C753.288 67.7578 758.08 52.7148 753.288 39.1404C752.931 38.13 752.022 36.9371 750.895 36.8811C736.56 36.1686 722.182 36.6375 707.829 36.8811Z" fill="#11252f" fill-rule="nonzero" filter="url(#Filter_4)" stroke="none" vectornator:shadowAngle="1.5708" vectornator:shadowColor="#000000" vectornator:shadowOffset="11.6676" vectornator:shadowOpacity="0.333" vectornator:shadowRadius="11.6676"/>
<path d="M301.89 36.8811C292.052 37.0157 282.193 36.9215 272.382 37.6342C271.632 37.6886 270.792 38.4304 270.787 39.1404C270.259 110.682 270.531 182.228 270.787 253.771C270.799 257.12 269.634 263.465 273.179 263.561C291.249 264.049 309.341 264.049 327.411 263.561C328.163 263.541 329.001 262.765 329.006 262.055C329.534 187.501 329.534 112.941 329.006 38.3873C329.001 37.6773 328.162 36.9228 327.411 36.8811C318.919 36.4094 310.396 36.7647 301.89 36.8811Z" fill="#05364b" fill-rule="nonzero" filter="url(#Filter_5)" stroke="none" vectornator:shadowAngle="1.5708" vectornator:shadowColor="#000000" vectornator:shadowOffset="11.6676" vectornator:shadowOpacity="0.333" vectornator:shadowRadius="11.6676"/>
</g>
</svg>
